<svg width="407" height="247" viewBox="0 0 407 247" fill="none" xmlns="http://www.w3.org/2000/svg">
<g clip-path="url(#clip0_6_625)">
<rect y="84.6189" width="160" height="179" rx="8" transform="rotate(-25 0 84.6189)" fill="url(#paint0_radial_6_625)"/>
<path d="M87.2903 224.236C89.2331 231.161 95.2362 243.928 95.427 244.338L117.429 234.078L111.276 220.883C103.357 222.164 95.2984 223.146 87.2903 224.236Z" fill="#F49F80"/>
<path d="M167.732 194.673L173.841 207.773L194.008 198.369C194.008 198.369 191.562 189.116 185.235 179.197C179.544 184.555 173.607 189.679 167.732 194.673Z" fill="#F49F80"/>
<path d="M182.736 175.38C171.707 160.445 151.454 146.47 116.954 162.558C86.403 176.804 83.3663 201.51 86.3965 220.142L109.392 216.843L117.429 234.078L173.841 207.773L165.804 190.538L182.736 175.38Z" fill="#F6DED3"/>
<path d="M109.392 216.843L86.3962 220.142C86.6282 221.563 86.901 222.939 87.1927 224.282C95.2344 223.177 103.325 222.18 111.276 220.883L109.392 216.843Z" fill="#463345"/>
<path d="M182.736 175.38L165.804 190.538L167.732 194.673C173.635 189.666 179.601 184.529 185.32 179.157C184.52 177.903 183.665 176.639 182.736 175.38Z" fill="#463345"/>
<path d="M106.207 168.713C102.648 170.771 102.1 175.774 105.185 178.491C109.462 182.258 116.689 185.55 127.295 180.728C137.287 176.185 140.339 169.292 141.01 163.847C141.543 159.521 137.351 156.118 133.18 157.38C126.383 159.438 115.818 163.155 106.207 168.713Z" fill="#463345"/>
<path d="M109.825 168.511C107.094 170.092 106.673 173.93 109.041 176.016C112.323 178.907 117.871 181.433 126.01 177.733C133.679 174.246 136.021 168.956 136.537 164.776C136.946 161.457 133.729 158.844 130.528 159.814C125.311 161.393 117.202 164.245 109.825 168.511Z" fill="#F49F80"/>
<path d="M56.1271 133.084C56.642 136.325 65.404 162.281 76.1275 163.14C77.7328 163.269 79.432 161.294 78.6103 160.14C80.6335 164.106 87.129 169.258 91.1444 165.215C94.7565 161.579 101.148 162.493 105.905 160.316C112.825 157.148 119.746 153.981 126.666 150.814C129.923 149.323 131.559 148.449 134.915 147.403C137.87 146.48 139.979 139.418 138.864 136.58C140.506 138.117 144.732 134.723 145.043 130.315C145.953 117.402 138.065 102.009 133.481 97.5851" fill="#59322B"/>
<path d="M104.804 158.171L108.135 163.989C115.325 162.655 122.038 159.767 127.536 155.582L123.611 146.87L104.804 158.171Z" fill="#F08863"/>
<path d="M129.357 159.624L127.537 155.582C122.037 159.767 115.324 162.655 108.134 163.99L110.388 167.928C117.383 167.134 123.627 163.96 129.357 159.624Z" fill="#F08863"/>
<path d="M110.388 167.927L113.194 172.829C113.194 172.829 116.583 177.245 124.102 173.739C132.529 169.809 131.468 164.308 131.468 164.308L129.357 159.624C123.627 163.961 117.383 167.134 110.388 167.927Z" fill="#F49F80"/>
<path d="M118.781 86.5962C124.149 92.0828 126.952 95.484 132.878 111.058C138.361 125.468 134.615 143.912 118.07 152.977C102.52 161.496 81.8301 163.551 67.363 142.647C55.1702 125.031 51.6523 103.519 69.7311 89.0036C87.809 74.489 108.594 76.184 118.781 86.5962Z" fill="#F49F80"/>
<path d="M67.2966 142.195C69.7247 138.333 69.1071 132.827 65.8846 129.598C67.0991 130.704 69.1716 130.42 70.3334 129.26C71.4955 128.1 71.8466 126.317 71.6391 124.688C71.4304 123.059 70.7354 121.54 70.048 120.048C69.4038 118.651 68.7434 117.228 67.6988 116.098C66.6543 114.969 65.1415 114.161 63.6146 114.345C60.9211 114.67 59.5071 117.668 58.8077 120.288C57.489 125.227 56.9485 130.593 58.7677 135.369C60.5861 140.146 65.2596 144.096 70.3613 143.776" fill="#6D4339"/>
<path d="M134.368 110.919C129.849 110.297 126.028 106.284 125.627 101.74C125.692 103.381 124.142 104.786 122.507 104.93C120.872 105.076 119.28 104.198 118.167 102.992C117.052 101.785 116.335 100.276 115.634 98.7905C114.978 97.399 114.312 95.9786 114.118 94.4523C113.924 92.926 114.278 91.2479 115.401 90.196C117.381 88.3419 120.586 89.1858 123.043 90.3343C127.674 92.4988 132.132 95.5341 134.622 99.998C137.112 104.461 137.134 110.581 133.609 114.283" fill="#6D4339"/>
<path d="M68.4103 137.559C68.4103 137.559 77.799 178.373 117.118 162.481C153.849 147.635 131.291 107.167 131.291 107.167C131.291 107.167 126.48 110.844 122.215 125.263C119.92 133.02 111.788 130.125 105.649 133.419C99.5111 136.713 97.334 139.238 90.4263 142.675C83.5185 146.111 78.2504 132.755 68.4103 137.559Z" fill="#6D4339"/>
<path d="M130.46 124.444C128.534 121.209 128.09 109.576 128.09 109.576C128.09 109.576 138.078 99.5946 144.456 111.642C150.835 123.69 135.428 132.79 130.46 124.444Z" fill="#F49F80"/>
<path d="M135.011 123.193C135.045 123.177 135.076 123.154 135.103 123.123C135.201 123.009 135.187 122.836 135.073 122.738C135.018 122.691 129.614 117.99 132.466 113.301C133.468 111.653 134.744 110.645 136.26 110.301C138.878 109.709 141.366 111.312 141.391 111.327C141.519 111.41 141.687 111.375 141.769 111.249C141.852 111.123 141.817 110.954 141.691 110.872C141.582 110.8 138.991 109.126 136.144 109.768C134.477 110.145 133.082 111.236 132 113.017C128.906 118.103 134.659 123.103 134.719 123.153C134.802 123.225 134.917 123.237 135.011 123.193Z" fill="#763633"/>
<path d="M138.847 115.516C138.922 115.48 138.981 115.412 138.998 115.324C139.029 115.176 138.934 115.032 138.787 115.001C138.731 114.99 133.17 113.896 131.529 118.414C131.477 118.555 131.551 118.713 131.692 118.764C131.834 118.816 131.99 118.743 132.041 118.601C133.523 114.524 138.625 115.526 138.676 115.536C138.735 115.548 138.795 115.54 138.847 115.516Z" fill="#763633"/>
<path d="M109.273 139.646C105.495 141.408 103.593 138.472 103.573 138.44C103.493 138.312 103.532 138.145 103.659 138.065C103.778 137.985 103.954 138.022 104.035 138.149C104.11 138.269 105.928 141.027 109.713 138.797C109.847 138.729 110.011 138.763 110.087 138.893C110.164 139.023 110.121 139.19 109.991 139.267C109.745 139.412 109.506 139.538 109.273 139.646Z" fill="#2D201B"/>
<path d="M78.9491 148.464C77.7091 144.91 69.0827 137.091 69.0827 137.091C69.0827 137.091 55.0163 138.327 60.1455 150.957C65.2743 163.588 82.1491 157.634 78.9491 148.464Z" fill="#F49F80"/>
<path d="M76.0736 127.537C76.0736 127.537 72.5938 126.498 76.5205 121.339C80.4467 116.18 82.5545 115.929 84.0359 116.903C85.3865 117.791 85.067 120.216 82.8033 123.068C80.0864 126.492 77.9951 128.171 76.0736 127.537Z" fill="#6D4339"/>
<path d="M89.9331 131.231C90.7173 132.913 90.2345 134.798 88.8538 135.442C87.474 136.086 85.7194 135.243 84.9352 133.562C84.1509 131.88 84.6337 129.994 86.0135 129.351C87.3942 128.707 89.1488 129.549 89.9331 131.231Z" fill="#000100"/>
<path d="M118.557 107.727C118.557 107.727 119.998 104.393 113.522 104.085C107.046 103.777 105.499 105.23 105.292 106.991C105.105 108.596 107.167 109.91 110.808 110.01C115.177 110.129 117.807 109.606 118.557 107.727Z" fill="#6D4339"/>
<path d="M111.38 121.23C112.164 122.912 113.919 123.754 115.299 123.11C116.679 122.467 117.162 120.582 116.378 118.9C115.594 117.218 113.839 116.376 112.459 117.019C111.078 117.663 110.596 119.548 111.38 121.23Z" fill="#000100"/>
<path d="M75.0655 151.146C75.0314 151.162 74.9934 151.171 74.9531 151.172C74.8027 151.173 74.6788 151.052 74.677 150.902C74.6764 150.829 74.5484 143.667 69.1232 142.838C67.2171 142.546 65.6245 142.876 64.3865 143.817C62.2504 145.441 61.8787 148.378 61.8746 148.407C61.8558 148.557 61.721 148.664 61.5716 148.645C61.4217 148.628 61.315 148.493 61.3325 148.344C61.3478 148.214 61.7317 145.153 64.0527 143.385C65.4125 142.35 67.146 141.983 69.206 142.298C75.0907 143.198 75.2226 150.819 75.2235 150.896C75.2242 151.007 75.159 151.102 75.0655 151.146Z" fill="#763633"/>
<path d="M66.7187 149.149C66.6429 149.185 66.5531 149.185 66.474 149.142C66.3412 149.071 66.2911 148.906 66.3628 148.773C66.3902 148.723 69.1268 143.759 73.6432 145.407C73.7841 145.458 73.8575 145.615 73.8062 145.756C73.7545 145.899 73.5979 145.972 73.4566 145.919C69.381 144.433 66.8693 148.986 66.8441 149.032C66.8141 149.085 66.7705 149.125 66.7187 149.149Z" fill="#763633"/>
<path d="M106.282 131.039C106.189 131.083 106.073 131.071 105.99 130.999C105.875 130.901 105.862 130.729 105.96 130.615C105.975 130.596 107.526 128.756 107.578 126.578C107.618 124.867 106.43 122.878 105.086 122.406C104.278 122.122 103.506 122.426 102.848 123.289C102.826 123.317 102.795 123.363 102.752 123.423C100.532 126.609 98.7893 126.456 97.7176 125.765C95.7496 124.497 90.1202 109.87 89.4841 108.206C89.43 108.066 89.5053 107.91 89.642 107.854C89.7825 107.8 89.9401 107.872 89.9942 108.012C91.7029 112.487 96.476 124.315 98.0124 125.307C99.278 126.122 100.723 125.384 102.304 123.111C102.353 123.042 102.389 122.988 102.414 122.957C103.218 121.907 104.231 121.527 105.267 121.891C106.835 122.442 108.169 124.638 108.124 126.591C108.068 128.968 106.443 130.889 106.374 130.969C106.347 130.999 106.316 131.023 106.282 131.039Z" fill="#763633"/>
<path d="M112.401 68.0031C104.867 66.0239 49.5592 95.9062 49.5592 95.9062C49.5592 95.9062 45.7194 106.477 45.7765 113.487C45.8301 120.008 54.549 135.829 58.1581 139.636C58.7114 137.477 60.8172 133.546 62.0385 132.221C62.618 129.608 63.4659 127.437 65.7086 125.279C70.1154 118.685 78.5231 111.391 92.9595 103.806C118.379 90.4511 136.189 100.861 136.189 100.861C136.189 100.861 133.17 87.392 127.004 78.242C123.522 73.0745 119.934 69.9823 112.401 68.0031Z" fill="#D7553B"/>
<path d="M115.069 69.3907C105.944 64.0345 86.6999 64.3125 74.8525 70.0649C63.0056 75.8181 49.1904 92.0713 48.3111 100.063C47.2951 109.289 58.9673 127.59 62.0382 132.221C64.8289 125.095 72.4001 113.393 92.96 103.806C105.851 97.7948 114.99 96.5747 121.355 97.3012C124.214 96.6113 125.839 96.4067 125.839 96.4067C125.839 96.4067 124.194 74.7468 115.069 69.3907" fill="#EC6948"/>
<path d="M77.0464 93.4943C92.7516 82.3491 120.779 72.8588 129.082 76.262C129.802 76.558 130.33 77.0046 130.714 77.5601C130.358 76.4002 129.652 75.494 128.458 74.9797C119.86 71.2682 91.1492 81.0249 75.141 92.5465C59.165 104.044 61.6601 129.253 62.3103 131.54C62.7402 130.512 63.2704 129.399 63.9169 128.22C63.8171 121.452 63.8562 102.855 77.0464 93.4943Z" fill="#EB8B29"/>
<path d="M77.0464 93.4943C63.8562 102.855 63.8171 121.452 63.9169 128.22C67.7826 121.174 76.4044 112.656 92.9594 103.806C108.599 96.5132 117.174 97.3967 126.043 97.6079C128.791 93.3073 132.537 83.5173 130.714 77.5602C130.33 77.0047 129.802 76.5581 129.082 76.2621C120.779 72.8589 92.7516 82.3492 77.0464 93.4943Z" fill="#F5A44E"/>
</g>
<g clip-path="url(#clip1_6_625)">
<rect x="126" width="160" height="179" rx="8" fill="url(#paint1_radial_6_625)"/>
<path d="M191.235 107.872C191.235 107.872 201.721 102.533 220.363 107.872V113.661H191.235V107.872Z" fill="#E8CDC2"/>
<path d="M146.019 182.412H185.002H185.344L178.442 116.693C144.116 133.185 146.019 181.337 146.019 182.412Z" fill="#463345"/>
<path d="M226.461 113.993C220.234 112.223 213.055 111.21 204.751 111.21C198.779 111.21 193.419 111.875 188.598 113.066C184.899 113.979 181.528 115.211 178.442 116.693L185.344 182.411H226.747L233.663 116.558C231.416 115.587 229.025 114.722 226.461 113.993Z" fill="#F6DED3"/>
<path d="M233.662 116.559L226.746 182.412H230.009H265.719C265.719 182.412 271.906 133.098 233.662 116.559Z" fill="#463345"/>
<path d="M165.925 182.411H164.863V154.219H165.925V182.411Z" fill="#170D15"/>
<path d="M247.228 182.411H246.166V154.219H247.228V182.411Z" fill="#170D15"/>
<path d="M206.427 182.411H205.364V117.599H206.427V182.411Z" fill="#E8CDC2"/>
<path d="M193.466 98.5737L194.098 106.126C202.101 108.193 210.359 108.443 217.992 106.781L218.133 95.9798L193.466 98.5737Z" fill="#ECA178"/>
<path d="M194.098 106.126L195.058 117.6C195.058 117.6 196.666 116.965 206.045 116.965C216.556 116.965 217.852 117.6 217.852 117.6L217.992 106.781C210.359 108.443 202.101 108.193 194.098 106.126Z" fill="#F8BB8C"/>
<path d="M243.108 36.3653C243.108 36.3653 247.251 49.3837 245.175 68.1708C243.258 85.4953 229.709 102.794 208.428 104.176C188.427 105.475 171.319 97.29 165.085 69.2362C158.85 41.1814 168.74 20.7637 194.436 15.6068C219.743 10.5284 238.309 19.8704 243.108 36.3653Z" fill="#F8BB8C"/>
<path d="M202.79 14.4327C200.097 14.6484 197.313 15.0297 194.436 15.6075C192.772 15.9411 191.178 16.3415 189.646 16.8015C191.203 16.3946 192.805 16.0239 194.456 15.6925C197.293 15.1232 200.075 14.7089 202.79 14.4327Z" fill="#F8BB8C"/>
<path d="M244.308 35.3482C239.984 19.1975 221.889 11.6548 198.418 14.6406C187.924 15.6168 155.637 21.7021 164.067 63.7982C164.142 64.0839 164.206 64.3612 164.286 64.6512L168.999 64.1094C168.999 64.1094 176.595 47.076 175.71 37.4811C175.71 37.4811 204.258 50.1596 232.761 36.0631C232.761 36.0631 232.036 57.067 240.826 64.9475H245.393C245.435 64.7829 245.472 64.6161 245.511 64.4515C248.794 50.8022 244.308 35.3482 244.308 35.3482Z" fill="#F8BB8C"/>
<g opacity="0.679993">
<path d="M244.308 35.3482C239.984 19.1975 221.889 11.6548 198.418 14.6406C187.924 15.6168 155.637 21.7021 164.067 63.7982C164.142 64.0839 164.206 64.3612 164.286 64.6512L168.999 64.1094C168.999 64.1094 176.595 47.076 175.71 37.4811C175.71 37.4811 204.258 50.1596 232.761 36.0631C232.761 36.0631 232.036 57.067 240.826 64.9475H245.393C245.435 64.7829 245.472 64.6161 245.511 64.4515C248.794 50.8022 244.308 35.3482 244.308 35.3482Z" fill="#EFB64C"/>
</g>
<path d="M237.924 80.4747L238.835 64.2676C238.835 64.2676 257.602 58.655 258.38 74.0452C259.16 89.4365 242.99 90.2161 237.924 80.4747Z" fill="#F8BB8C"/>
<path d="M243.185 81.3674C243.227 81.3674 243.271 81.3589 243.312 81.3398C243.467 81.2697 243.536 81.0859 243.465 80.9309C243.432 80.8565 240.142 73.4572 245.304 70.0157C247.117 68.8069 248.906 68.3842 250.624 68.7559C253.588 69.3996 255.373 72.2304 255.391 72.2591C255.482 72.4035 255.671 72.4481 255.815 72.3589C255.961 72.2697 256.005 72.0795 255.915 71.9351C255.838 71.8098 253.982 68.8568 250.76 68.1537C248.872 67.7447 246.922 68.1961 244.962 69.5027C239.362 73.2363 242.868 81.1083 242.904 81.1869C242.956 81.3005 243.068 81.3674 243.185 81.3674Z" fill="#763634"/>
<path d="M250.783 75.3342C250.877 75.3342 250.97 75.2917 251.03 75.21C251.132 75.074 251.103 74.8796 250.968 74.7787C250.915 74.7394 245.74 70.9622 241.901 74.8074C241.779 74.9285 241.779 75.1239 241.901 75.2439C242.021 75.364 242.216 75.364 242.336 75.2439C245.802 71.7737 250.551 75.2386 250.598 75.2737C250.654 75.314 250.718 75.3342 250.783 75.3342Z" fill="#763634"/>
<path d="M173.674 80.4747L168.998 64.1094C168.998 64.1094 153.997 58.655 153.218 74.0452C152.439 89.4365 168.609 90.2161 173.674 80.4747Z" fill="#F8BB8C"/>
<path d="M168.414 81.3674C168.371 81.3674 168.328 81.3589 168.286 81.3398C168.131 81.2697 168.062 81.0859 168.133 80.9309C168.167 80.8565 171.457 73.4572 166.295 70.0157C164.481 68.8069 162.693 68.3842 160.974 68.7559C158.011 69.3996 156.226 72.2304 156.208 72.2591C156.118 72.4035 155.929 72.4481 155.783 72.3589C155.639 72.2697 155.594 72.0795 155.683 71.9351C155.761 71.8098 157.616 68.8568 160.838 68.1537C162.727 67.7447 164.677 68.1961 166.637 69.5027C172.238 73.2363 168.73 81.1083 168.694 81.1869C168.643 81.3005 168.531 81.3674 168.414 81.3674Z" fill="#763634"/>
<path d="M160.816 75.3342C160.721 75.3342 160.629 75.2917 160.568 75.21C160.467 75.074 160.495 74.8796 160.632 74.7787C160.683 74.7394 165.858 70.9622 169.698 74.8074C169.819 74.9285 169.819 75.1239 169.698 75.2439C169.578 75.364 169.383 75.364 169.262 75.2439C165.797 71.7737 161.048 75.2386 161.001 75.2737C160.944 75.314 160.881 75.3342 160.816 75.3342Z" fill="#763634"/>
<path d="M207.534 83.1289C202.821 83.1289 202.275 79.2115 202.269 79.1701C202.248 79.0012 202.368 78.8472 202.537 78.8259C202.696 78.8015 202.859 78.9226 202.882 79.0925C202.903 79.2497 203.446 82.9451 208.391 82.4682C208.56 82.464 208.712 82.5766 208.728 82.7455C208.745 82.9154 208.62 83.0662 208.45 83.0832C208.129 83.114 207.824 83.1289 207.534 83.1289Z" fill="#763634"/>
<path d="M195.64 82.4877C195.059 85.4183 190.139 86.9117 184.651 85.824C179.164 84.7363 175.185 81.4796 175.766 78.549C176.347 75.6184 181.267 74.1239 186.755 75.2116C192.242 76.2993 196.221 79.557 195.64 82.4877Z" fill="#ECA178"/>
<path d="M180.004 56.961C180.004 56.961 176.935 54.2333 183.423 50.8247C189.911 47.415 192.191 48.1649 193.242 49.8697C194.201 51.4248 192.717 53.7563 189.034 55.5971C184.614 57.8076 181.67 58.5288 180.004 56.961Z" fill="#EFB64C"/>
<path d="M191.739 68.0667C191.739 70.1645 190.343 71.8651 188.622 71.8651C186.901 71.8651 185.505 70.1645 185.505 68.0667C185.505 65.9688 186.901 64.2672 188.622 64.2672C190.343 64.2672 191.739 65.9688 191.739 68.0667Z" fill="#000100"/>
<path d="M225.006 68.0667C225.006 70.1645 223.61 71.8651 221.889 71.8651C220.168 71.8651 218.772 70.1645 218.772 68.0667C218.772 65.9688 220.168 64.2672 221.889 64.2672C223.61 64.2672 225.006 65.9688 225.006 68.0667Z" fill="#000100"/>
<path d="M215.958 82.4877C216.539 85.4183 221.459 86.9117 226.948 85.824C232.436 84.7363 236.414 81.4796 235.833 78.549C235.252 75.6184 230.332 74.1239 224.843 75.2116C219.356 76.2993 215.377 79.557 215.958 82.4877Z" fill="#ECA178"/>
<path d="M230.045 56.3871C230.045 56.3871 233.114 53.6594 226.626 50.2508C220.138 46.8411 217.858 47.591 216.807 49.2959C215.847 50.8509 217.333 53.1825 221.015 55.0233C225.435 57.2337 228.379 57.9549 230.045 56.3871Z" fill="#EFB64C"/>
<path d="M208.581 75.6808C208.464 75.6808 208.353 75.6139 208.301 75.5002C208.23 75.3451 208.299 75.1624 208.454 75.0913C208.478 75.0796 210.947 73.9367 212.04 71.7294C212.898 69.9948 212.631 67.3903 211.48 66.2644C210.789 65.5878 209.852 65.5304 208.765 66.0997C208.73 66.1178 208.676 66.1497 208.604 66.1911C204.807 68.3952 203.095 67.4052 202.326 66.1858C200.916 63.9467 202.171 54.5048 202.314 52.4961C202.327 52.3262 202.477 52.2019 202.645 52.2104C202.814 52.2231 202.942 52.3708 202.929 52.5407C202.543 57.941 201.746 64.107 202.848 65.8565C203.755 67.2968 205.586 67.232 208.293 65.6579C208.376 65.6101 208.439 65.5729 208.479 65.5527C209.804 64.8612 211.024 64.9557 211.912 65.8225C213.254 67.1364 213.573 70.0235 212.593 72.0024C211.4 74.4115 208.818 75.6032 208.709 75.6532C208.667 75.6723 208.624 75.6808 208.581 75.6808Z" fill="#763634"/>
<path d="M206.456 115.723L202.479 127.719C202.479 127.719 189.436 123.521 184.937 115.723L191.235 107.872C191.235 107.872 196.805 113.712 206.456 115.723Z" fill="#E8CDC2"/>
<path d="M205.142 115.723L209.12 127.719C209.12 127.719 222.163 123.521 226.661 115.723L220.363 107.872C220.363 107.872 214.793 113.712 205.142 115.723Z" fill="#E8CDC2"/>
</g>
<g clip-path="url(#clip2_6_625)">
<rect x="261.649" y="17" width="160" height="179" rx="8" transform="rotate(25 261.649 17)" fill="url(#paint2_radial_6_625)"/>
<path d="M258.428 112.818C268.874 107.806 281.665 112.747 286.997 123.857C292.329 134.967 288.183 148.038 277.736 153.052C267.29 158.065 254.499 153.122 249.167 142.013C243.835 130.903 247.982 117.831 258.428 112.818Z" fill="#3D241E"/>
<path d="M263.891 114.058C269.142 111.155 277.485 116.192 282.526 125.309C287.567 134.425 287.397 144.17 282.147 147.073C276.896 149.977 268.554 144.94 263.512 135.823C258.471 126.706 258.641 116.961 263.891 114.058Z" fill="#F5A44E"/>
<path d="M205.017 196.139C205.54 195.018 231.311 133.45 284.506 158.256C344.965 186.448 308.513 244.4 308.513 244.4L205.017 196.139Z" fill="#F2A9B9"/>
<path d="M225.148 205.527L255.99 152.068C255.99 152.068 259.835 150.964 265.497 152.413L254.332 171.551L294.896 190.57L304.87 172.258C304.87 172.258 310.287 176.595 310.726 179.269L290.266 235.892L225.148 205.527Z" fill="#463345"/>
<path d="M255.819 182.354L287.397 197.079L284.473 203.349C281.685 209.328 274.577 211.915 268.599 209.127L258.673 204.499C252.695 201.711 250.108 194.603 252.896 188.624L255.819 182.354Z" fill="#170D15"/>
<path d="M275.117 151.386L288.518 156.062L298.516 162.887L296.646 166.825L274.243 155.344L275.117 151.386Z" fill="#E488A1"/>
<path d="M298.732 157.508L302.105 150.431L279.185 143.899L276.918 149.554C279.807 151.915 287.804 157.165 298.732 157.508Z" fill="#F8BB8C"/>
<path d="M276.918 149.554L275.098 154.093C280.75 160.04 287.736 163.697 295.355 164.589L298.731 157.508C287.804 157.165 279.807 151.914 276.918 149.554Z" fill="#FAD1B3"/>
<path d="M275.117 151.386L272.153 160.219C272.153 160.219 271.404 165.34 280.666 169.659C291.046 174.499 294.663 170.716 294.663 170.716L298.491 162.869C290.387 160.568 282.317 156.584 275.117 151.386Z" fill="#F2A9B9"/>
<path d="M295.118 170.938L294.208 170.493L298.035 162.647L298.946 163.092L295.118 170.938Z" fill="#E488A1"/>
<path d="M271.673 160.057L274.637 151.225L275.598 151.548L272.633 160.381L271.673 160.057Z" fill="#E488A1"/>
<path d="M323.986 69.5201C323.986 69.5201 274.923 37.454 261.286 100.995L344.093 138.303C349.77 130.964 375.58 86.0637 323.986 69.5201Z" fill="#3D241E"/>
<path d="M347.621 108.903C347.621 108.903 345.954 121.83 336.584 137.236C327.943 151.443 309.253 160.937 290.296 153.552C272.478 146.611 260.986 132.636 266.907 105.867C272.827 79.0967 289.61 65.4297 313.908 71.3313C337.836 77.1437 350.122 92.7063 347.621 108.903Z" fill="#FAD1B3"/>
<path d="M263.051 98.8386C263.051 98.8386 279.121 51.638 322.827 69.8804C366.532 88.1238 342.472 132.962 342.472 132.962L334.671 133.693C334.671 133.693 344.948 113.799 330.377 97.9847C327.383 94.7362 321.661 95.0992 316.164 92.698C310.116 90.0542 305.903 85.668 301.1 85.6732C280.285 85.6924 272.358 103.012 272.358 103.012L263.051 98.8386Z" fill="#3D241E"/>
<path d="M325.355 144.952L332.676 131.306C332.676 131.306 351.166 134.019 345.634 147.64C340.102 161.262 325.807 155.417 325.355 144.952Z" fill="#FAD1B3"/>
<path d="M329.543 147.844C329.58 147.862 329.621 147.871 329.665 147.872C329.827 147.874 329.961 147.743 329.962 147.58C329.963 147.502 330.101 139.778 335.952 138.884C338.007 138.57 339.724 138.925 341.06 139.94C343.363 141.691 343.765 144.858 343.769 144.89C343.789 145.052 343.934 145.166 344.096 145.148C344.257 145.129 344.372 144.983 344.353 144.822C344.337 144.682 343.923 141.381 341.421 139.474C339.953 138.359 338.085 137.963 335.863 138.302C329.515 139.272 329.374 147.492 329.374 147.575C329.372 147.694 329.442 147.797 329.543 147.844Z" fill="#763634"/>
<path d="M338.545 145.691C338.626 145.729 338.724 145.73 338.809 145.684C338.952 145.607 339.006 145.428 338.929 145.286C338.9 145.231 335.948 139.878 331.078 141.655C330.924 141.711 330.845 141.88 330.902 142.032C330.957 142.184 331.126 142.263 331.278 142.208C335.674 140.605 338.383 145.515 338.41 145.564C338.442 145.622 338.489 145.665 338.545 145.691Z" fill="#763634"/>
<path d="M269.802 119.047L272.358 103.012C272.358 103.012 261.586 92.2477 254.708 105.241C247.828 118.234 261.495 125.427 269.802 119.047Z" fill="#FAD1B3"/>
<path d="M264.894 117.698C264.857 117.681 264.824 117.655 264.795 117.623C264.689 117.5 264.704 117.313 264.828 117.208C264.887 117.157 270.715 112.086 267.639 107.029C266.558 105.253 265.182 104.166 263.546 103.794C260.724 103.156 258.04 104.884 258.013 104.902C257.877 104.99 257.695 104.952 257.605 104.817C257.517 104.681 257.555 104.499 257.69 104.41C257.808 104.333 260.603 102.528 263.672 103.219C265.469 103.627 266.974 104.803 268.141 106.723C271.479 112.209 265.273 117.601 265.209 117.655C265.12 117.733 264.995 117.745 264.894 117.698Z" fill="#763634"/>
<path d="M260.757 109.418C260.677 109.381 260.613 109.306 260.593 109.211C260.56 109.052 260.663 108.896 260.822 108.864C260.882 108.85 266.88 107.671 268.649 112.544C268.705 112.697 268.627 112.866 268.473 112.921C268.321 112.977 268.152 112.898 268.097 112.746C266.499 108.348 260.996 109.429 260.942 109.44C260.877 109.453 260.813 109.444 260.757 109.418Z" fill="#763634"/>
<path d="M298.008 134.994C293.933 133.093 295.04 129.486 295.053 129.447C295.102 129.294 295.268 129.209 295.423 129.259C295.57 129.302 295.662 129.472 295.614 129.628C295.568 129.772 294.547 133.186 299.016 134.768C299.163 134.832 299.249 134.991 299.195 135.143C299.141 135.297 298.973 135.377 298.819 135.324C298.528 135.221 298.259 135.11 298.008 134.994Z" fill="#763634"/>
<path d="M287.983 129.644C286.299 131.944 281.443 131.251 277.136 128.098C272.829 124.945 270.703 120.524 272.387 118.225C274.071 115.926 278.928 116.617 283.234 119.771C287.541 122.924 289.667 127.345 287.983 129.644Z" fill="#F8BB8C"/>
<path d="M284.756 101.269C284.756 101.269 283.202 97.673 290.186 97.3416C297.17 97.0094 298.839 98.5768 299.061 100.475C299.264 102.207 297.039 103.623 293.113 103.73C288.4 103.859 285.564 103.295 284.756 101.269Z" fill="#3D241E"/>
<path d="M290.424 115.602C289.579 117.416 287.686 118.324 286.197 117.63C284.71 116.936 284.188 114.903 285.034 113.089C285.88 111.275 287.773 110.366 289.261 111.06C290.749 111.754 291.27 113.788 290.424 115.602Z" fill="#000100"/>
<path d="M319.188 129.015C318.342 130.829 316.45 131.736 314.961 131.042C313.473 130.348 312.952 128.315 313.798 126.501C314.644 124.688 316.537 123.779 318.024 124.473C319.513 125.167 320.034 127.201 319.188 129.015Z" fill="#000100"/>
<path d="M305.551 137.836C304.871 140.604 308.523 143.879 313.707 145.151C318.891 146.424 323.644 145.211 324.323 142.443C325.002 139.675 321.351 136.399 316.168 135.128C310.984 133.855 306.23 135.068 305.551 137.836Z" fill="#F8BB8C"/>
<path d="M328.254 120.948C328.254 120.948 332.007 119.827 327.771 114.264C323.536 108.7 321.263 108.429 319.667 109.479C318.209 110.437 318.554 113.052 320.996 116.128C323.927 119.82 326.182 121.632 328.254 120.948Z" fill="#3D241E"/>
<path d="M301.917 128.976C301.816 128.929 301.745 128.826 301.747 128.707C301.748 128.544 301.882 128.414 302.044 128.415C302.07 128.415 304.665 128.422 306.5 126.954C307.943 125.801 308.761 123.441 308.22 122.003C307.895 121.139 307.108 120.712 305.938 120.766C305.901 120.768 305.841 120.773 305.762 120.78C301.591 121.155 300.51 119.609 300.337 118.244C300.021 115.74 304.912 108.082 305.846 106.403C305.925 106.261 306.105 106.214 306.247 106.289C306.388 106.368 306.439 106.548 306.36 106.69C303.848 111.204 300.673 116.213 300.92 118.17C301.124 119.781 302.733 120.463 305.709 120.194C305.8 120.186 305.869 120.179 305.912 120.178C307.336 120.114 308.353 120.688 308.772 121.795C309.402 123.472 308.513 126.098 306.869 127.413C304.866 129.015 302.153 129.005 302.038 129.004C301.995 129.003 301.954 128.993 301.917 128.976Z" fill="#763634"/>
<path d="M278.058 100.412C278.058 100.412 279.217 104.41 274.674 111.446C270.129 118.483 265.999 120.272 265.339 124.75C264.68 129.229 264.479 133.493 258.354 138.074C258.354 138.074 263.178 133.556 261.418 127.097C259.657 120.637 265.663 114.69 268.958 110.925C272.253 107.161 268.858 98.868 268.858 98.868" fill="#3D241E"/>
<path d="M336.142 125.703C336.142 125.703 332.334 127.385 329.865 135.388C327.396 143.392 328.68 147.706 325.673 151.091C322.666 154.475 319.528 157.369 319.957 165.005C319.957 165.005 320.317 158.407 326.397 155.603C332.477 152.8 333.171 144.375 333.937 139.432C334.704 134.488 343.238 131.758 343.238 131.758" fill="#3D241E"/>
<path d="M278.122 92.7826C278.063 92.7548 278.012 92.7022 277.989 92.6344C275.552 85.4668 276.384 77.2878 280.215 70.7578C280.286 70.6366 280.439 70.5984 280.561 70.6667C280.683 70.7377 280.722 70.8926 280.652 71.0142C276.895 77.4189 276.078 85.4406 278.47 92.4716C278.514 92.6042 278.444 92.748 278.311 92.7933C278.247 92.815 278.179 92.8092 278.122 92.7826Z" fill="#21110D"/>
<path d="M317.025 91.6391C316.92 91.5903 316.859 91.4732 316.884 91.3564C318.012 86.1166 319.903 81.088 322.505 76.4108C322.573 76.2884 322.729 76.2438 322.848 76.3117C322.971 76.38 323.015 76.5338 322.947 76.6563C320.37 81.291 318.496 86.2729 317.38 91.4625C317.35 91.5994 317.215 91.6865 317.079 91.6576C317.06 91.6531 317.042 91.6472 317.025 91.6391Z" fill="#21110D"/>
<path d="M321.781 89.8312C321.778 89.8295 321.774 89.8277 321.77 89.826C321.647 89.7618 321.599 89.6076 321.664 89.4844L329.269 74.9298C329.334 74.8056 329.486 74.7561 329.611 74.8234C329.736 74.8871 329.783 75.0409 329.719 75.1641L322.113 89.7187C322.05 89.8392 321.903 89.8881 321.781 89.8312Z" fill="#21110D"/>
<path d="M333.273 96.5044C333.247 96.4924 333.223 96.4754 333.201 96.4542C333.101 96.3563 333.102 96.1954 333.2 96.0961C336.751 92.5214 339.903 88.5437 342.568 84.2751C342.641 84.1562 342.8 84.1174 342.916 84.194C343.035 84.2673 343.072 84.4241 342.998 84.5426C340.313 88.8435 337.138 92.8518 333.559 96.4535C333.482 96.5313 333.366 96.5481 333.273 96.5044Z" fill="#21110D"/>
<path d="M341.413 114.234C341.365 114.211 341.322 114.173 341.296 114.123C341.23 113.998 341.279 113.845 341.402 113.781C346.473 111.121 350.501 106.755 352.741 101.485C352.796 101.356 352.945 101.296 353.074 101.35C353.202 101.404 353.263 101.555 353.208 101.682C350.922 107.06 346.812 111.516 341.638 114.228C341.565 114.267 341.482 114.266 341.413 114.234Z" fill="#21110D"/>
<path d="M339.492 129.247C339.43 129.218 339.387 129.149 339.39 129.063C339.394 128.942 339.486 128.833 339.595 128.822C343.719 128.383 347.892 126.482 351.342 123.47C351.434 123.391 351.556 123.402 351.616 123.494C351.676 123.585 351.651 123.724 351.56 123.805C348.042 126.875 343.787 128.813 339.58 129.261C339.549 129.264 339.519 129.259 339.492 129.247Z" fill="#21110D"/>
<path d="M295.956 82.8459C295.882 82.8116 295.827 82.742 295.813 82.6562C295.059 77.8858 295.871 72.8976 298.099 68.6119C298.163 68.4877 298.315 68.4568 298.441 68.5042C298.565 68.5688 298.613 68.7221 298.549 68.8453C296.37 73.0363 295.575 77.912 296.313 82.5764C296.334 82.715 296.241 82.8445 296.102 82.8673C296.051 82.8746 296 82.8665 295.956 82.8459Z" fill="#21110D"/>
<path d="M302.704 76.9445C302.615 76.903 302.555 76.8112 302.559 76.7068C302.652 73.8667 303.443 71.0602 304.847 68.5919C304.916 68.4698 305.075 68.432 305.192 68.4967C305.313 68.5655 305.356 68.7198 305.287 68.8419C303.924 71.2397 303.155 73.965 303.063 76.723C303.06 76.8632 302.942 76.9729 302.803 76.9681C302.767 76.9673 302.734 76.9586 302.704 76.9445Z" fill="#21110D"/>
<path d="M272.912 98.8567L272.903 98.8528C269.127 96.9318 266.413 92.9661 265.994 88.7491C265.98 88.6103 266.081 88.4856 266.221 88.4723C266.36 88.458 266.484 88.5594 266.498 88.6986C266.902 92.7478 269.505 96.556 273.134 98.4013C273.258 98.4646 273.308 98.6178 273.245 98.7415C273.183 98.8633 273.036 98.9145 272.912 98.8567Z" fill="#21110D"/>
<path d="M312.898 91.1743C312.898 91.1743 328.976 97.5648 324.813 106.494C320.65 115.421 320.781 125.576 326.678 129.999C326.678 129.999 330.748 130.869 331.911 130.948C331.911 130.948 330.224 127.388 331.824 126.328C331.824 126.328 332.74 131.592 336.074 132.615L342.472 132.962C342.472 132.962 340.661 128.827 342.149 120.626C343.637 112.425 344.917 96.1795 321.696 89.7915" fill="#3D241E"/>
<path d="M318.485 93.7795C318.485 93.7795 303.916 85.8789 299.752 94.8077C295.589 103.736 287.894 110.241 280.992 108.696C280.992 108.696 277.864 106.209 277.098 105.388C277.098 105.388 280.793 104.337 280.614 102.448C280.614 102.448 276.111 105.185 273.316 103.351L269.165 98.7788C269.165 98.7788 273.367 97.4476 278.612 90.9977C283.857 84.5487 295.261 73.0244 314.171 86.2824" fill="#3D241E"/>
</g>
<defs>
<radialGradient id="paint0_radial_6_625" cx="0" cy="0" r="1" gradientUnits="userSpaceOnUse" gradientTransform="translate(80 174.119) rotate(90) scale(89.5 80)">
<stop stop-color="#BDC6F2"/>
<stop offset="1" stop-color="#9FAEF4"/>
</radialGradient>
<radialGradient id="paint1_radial_6_625" cx="0" cy="0" r="1" gradientUnits="userSpaceOnUse" gradientTransform="translate(206 89.5) rotate(90) scale(89.5 80)">
<stop stop-color="#D9BBE8"/>
<stop offset="1" stop-color="#D09AE9" stop-opacity="0.96"/>
</radialGradient>
<radialGradient id="paint2_radial_6_625" cx="0" cy="0" r="1" gradientUnits="userSpaceOnUse" gradientTransform="translate(341.649 106.5) rotate(90) scale(89.5 80)">
<stop stop-color="#C5CDF0"/>
<stop offset="1" stop-color="#9FAEF4" stop-opacity="0.92"/>
</radialGradient>
<clipPath id="clip0_6_625">
<rect y="84.6189" width="160" height="179" rx="8" transform="rotate(-25 0 84.6189)" fill="white"/>
</clipPath>
<clipPath id="clip1_6_625">
<rect x="126" width="160" height="179" rx="8" fill="white"/>
</clipPath>
<clipPath id="clip2_6_625">
<rect x="261.649" y="17" width="160" height="179" rx="8" transform="rotate(25 261.649 17)" fill="white"/>
</clipPath>
</defs>
</svg>
