<svg width="28" height="28" viewBox="0 0 28 28" fill="none" xmlns="http://www.w3.org/2000/svg">
<path d="M18.6666 14V7C18.6666 4.4135 16.5841 2.30884 14.0244 2.30884C13.9423 2.30933 13.8605 2.31912 13.7806 2.338C12.5827 2.39608 11.453 2.91242 10.6252 3.78018C9.79739 4.64795 9.33484 5.80072 9.33325 7V14C9.33325 16.5737 11.4263 18.6667 13.9999 18.6667C16.5736 18.6667 18.6666 16.5737 18.6666 14ZM11.6666 14V7C11.6666 5.71317 12.7131 4.66667 13.9999 4.66667C14.0637 4.66669 14.1274 4.66083 14.1901 4.64917C15.3859 4.73667 16.3333 5.7575 16.3333 7V14C16.3333 15.2868 15.2868 16.3333 13.9999 16.3333C12.7131 16.3333 11.6666 15.2868 11.6666 14Z" fill="#9DA2B6"/>
<path d="M7.00008 14H4.66675C4.66675 18.7507 8.23791 22.6753 12.8334 23.2528V25.6667H15.1667V23.2528C19.7622 22.6753 23.3334 18.7518 23.3334 14H21.0001C21.0001 17.8605 17.8606 21 14.0001 21C10.1396 21 7.00008 17.8605 7.00008 14Z" fill="#9DA2B6"/>
</svg>
